/* XPM */
static char *_7a68e80bb144d03c546afa5995245eanhsxEpIOEST2lwBp[] = {
/* columns rows colors chars-per-pixel */
"64 64 55 1 ",
"  c #442715",
". c #462816",
"X c #472916",
"o c #472A16",
"O c #482A16",
"+ c #482A17",
"@ c #492B17",
"# c #4A2B17",
"$ c #4A2C17",
"% c #4B2C17",
"& c #4B2C18",
"* c #4C2C18",
"= c #4C2D18",
"- c #4D2D18",
"; c #4D2D19",
": c #4E2D18",
"> c #4D2E18",
", c #4E2E18",
"< c #4E2E19",
"1 c #4F2E19",
"2 c #4F2F19",
"3 c #502F19",
"4 c #512F19",
"5 c #502F1A",
"6 c #512F1A",
"7 c #513019",
"8 c #523019",
"9 c #51301A",
"0 c #52301A",
"q c #52311A",
"w c #53311A",
"e c #53311B",
"r c #543119",
"t c #54311A",
"y c #54311B",
"u c #55321A",
"i c #54321B",
"p c #55321B",
"a c #55331B",
"s c #56321A",
"d c #56331B",
"f c #57331B",
"g c #56331C",
"h c #57331C",
"j c #57341C",
"k c #58341C",
"l c #58351C",
"z c #59351C",
"x c #59351D",
"c c #5A351D",
"v c #5A361D",
"b c #5B361D",
"n c #5C361D",
"m c #5C371E",
"M c #5D371E",
/* pixels */
"::::::::tfffffffffffffff7>>>::::::::::::tgffffffffffffff5>::::::",
"::::::::7ffffffffffffffff>>>::::::::::::7gfffffgfffffffft>::::::",
":::::::::tffffffffggqffgk3:::::::::::::::tgi77:77tfffffgf7>>::::",
":::::::::3fffffff55>>$$&34::::::::::::::oo&&:&:&:&:7fffgff>>::::",
"::::ttttttnMMMMgq5q5q5q544:eittttttt77&&$o55q5q577e57vMMMnht::::",
"::::ttttttgMMne75q5q5q5q3t7+3tttttt7:&&oo$$55q5q5e755exMMnnt::::",
"::::tttttttxxe77q5q5q5q573e&+57ttt7&o&o&$o$5q5q55555557vMMnh::::",
"::::ttttttee775e5q5q5q5q7e33&+7ti7&o&o&o$$$>5q557e7e7eeiMMnn::::",
"::::tiiett7:577eq5q5q5q5q55i$$$>t&&o&o&o&o&o555ee2e2e2e2nMMM7:::",
"+o&+37tett:&&5555q5q5q5q5q55:o$$7&o&o&o&o&o&&5572e2e2e2exMxg:ooo",
"    +&&&37&o$57eq5q5q5q5q5e55&$$&o&o&o&o&o&o$:77e2e2e2e2ee7e+.  ",
"    &+o&&+&&$&555q5q5q5q5q5555$$o&o&o&o&o&o&$&e72e2e2e2e77e::+  ",
"    &o&o&o&o$o55q5q5q5q5q5q55q&$&o&o&o&o&o&o&o55e2e2e2e2e2e2&&o ",
"    o&o&o&o$$$&55q5q5q5q5q5qq55oo&o&o&o&o&o&o&&72e2e2e2e2e2e&&+ ",
"    &o&o&o$o$o$5q5q5q5q5q5q55q5&&o&o&o&o&o&o&o&5e2e2e2e2e2e2&:++",
"    o&o&o&o$o$$$5q5q5q5q5q5qq5q5o&o&o&o&o&o&o&o&2e2e2e2e2e2e&+:+",
"o   ++$+&o&o&o&o577e5e555q5q5q5q&o&o&o&o$$$o&o&o22e255q5q5q5>&&&",
"+   +&+$o&o&o&o&&755575qq5q5q5q55&o&o&o&oo$$o&o&&e2ee75q5q5q&&&&",
"+o  $+$+&o&o&o&o&:5eq5q55q555q5q7&&o&o&+&oo$&o&o+2e2555eq5q5&&&&",
":+  +$+$o&o&o&o&$&575q5qq5qeq5q555o&o&&7555555&&&&2ee7575q5q&&&&",
":+  $+$+&o&o&oo&$&57q7e557e7e7e77e&&:7tt7ttttttt:&:ee555q5q5&&&&",
"&:+ +$+$o&o&o&:557qvvgggi75555557777ttttttttttttee37e7e75q5q&&&&",
"&&&o$+$+$o&:57tt7tfvMMMMMvge577e7xMgtttttttttttt7ttx7575q5q5&&&&",
"&&&$+$+$&:7tttttttqgMMMMMMMvie77xMMvttttttttttttittgxee55q55&&&&",
"&&&&$o&$:tttttttttttvMMMMMMMMf7xMMMMgittttttttttttttvxe7q5q5>&&&",
"&&&&5&o:7ittttttttttgMMMMMMMMxtMMMMMM7ttttttttttttttgvee5q5q&&&&",
"&&&&7&&7tttttttttttttMMMMMMMMMMMMMMMMgtttttttttttttttvg7q5q5&&&&",
"&:&&75$ttttttttttttt7gMMMMMMMMMMMMMMMntttttttttttttttgx75q5q&&&&",
"ggffxt&tttttttttttttttvMMMMMMMMMMMMMMMgtttttttttttttttf77ffvqffq",
"txffMMxtttttttttttttttfMMMMMMMMMMMMMMMntttttttttttttttqMMMMMggff",
"ffffMMMgttttttttttttt7tvMMMMMMMMMMMMMMMgttttttttttttttfvMMMMffff",
"ffffMMMnttttttttt7755$:5gxMMMMMMMMMMMMMxtttttttttttttt7gMMMMffff",
"ffffMMMMgttt7ee5&o&o&o&o5q5ivMMMMMMMMMMMge77f7e7i7ttttttxMMMxtff",
"ffffMMMMntttie&&&&o&o&o&&5qq5gvMMMMMMMMMg55&&:&:577ttittgMMMtxff",
"ffxtMMMMMgtt7+&o$o&o&o&o$5q57eqvMMMMMxg7e&o$&o$o$+&&:7tttnMMffff",
"ffggMMMMMn77+&o&o&o&o&o&o&5q555qxMMMi7e75&$$$$o&+$+&o&:7tgMMffff",
"ffffMMMMMMi+&o&o&o&o$o&o$$>57e557vvie:eee5&$o&o$$+$+$+$$7tnMffff",
"ffffMMMMMM7&o$o&o&o&o$o&$$&5555qeexe7e55555$&o$o+$+$+$+$:7fMffff",
"ffffMMMMMM7:$o$o&o&o$o$o$$$57e757e755e7e5e5&o&o$$+$+$+$+&5tnffff",
"ffffMMMMMxe:o$o$o&o&o$o$o$$&55e555e757555e52&o$o+$+$+$+$o:tffftk",
":5:57ggxvvi5&$$o&o&o&o&o&o&o577e757eq5q5q5q5&$$$$+$+$+$+&&7:&&&&",
"&&&&7ee7qi7e5$$$o&o&o&o&o&o&&755e5555q5q5q5q5$$o+$+$+$+$$&$&o&&&",
"&&&&557eq5q55&o$&o&o&o&o&o&o&55eq57eq5q5q5q55&$$$+$+$+$+$o&o o&&",
"&&&&7e755q5q55$$o&o&o&o&o&o&o&775q555q5q5q5q5>o$+$+$+$+$o&o& o&&",
"&&&&e7e5q5q5e5&o&o&o&o&o&o&o&o57q5q5q5q5q5q5q5$$$+$+$+$+$+&+  +&",
"&&&&55755q5q555$o&o&o&o&o&o&o$&75q5q5q5q5q5q5q5$+$+$+$+$+$+&  o&",
"&&&&5qe5q5555ee&&o&o&o&o&o&o&o+5q5q5q5q5q5q5q5q>$+$+$+$+$+&+   +",
"&&&&q5q555ee5555o&o&o&o&o&o&o&$&5q5q5q5q5q5q5q55+$+$+$+$+$++   .",
"$&&&5q5q5q5q5q5q&$$o&o&o&o&o$+$+55q5q5q555555555&o$+o&o&o&o&    ",
"o&&&q5q5q5q5q5q5:&o$o&o&o&o&+$+$>q5q5q5qqe7e7e7e5$+$&o&o&o&o    ",
" $&&5q5q5q5q5q5q7&$$&o&o&o&o$+$+$5q5q5555q57e5:e7$$+o&o&o&o&    ",
"  &&q5q5q5q5q5q575o&o&o&o&o&+$+$$$5q5qe7q55e75e775+$&o&o&o&o    ",
"  $&55e5555557eigg7::&$&&o+&o&$+$o>557e557ei77777e&$o$o&o&o&    ",
"   &e575qe7eqgvvMMMt7tt75&&+&o+$$$&55e5qlvMvMMxx755&&o&o&o&o    ",
"   $55555q7iMMMMMMMgttttet7:o+$+o$$57evMMMMMMMMMMge:o&o&o&o&    ",
"   o5e7eq5gMMMMMMMMMtttt7iit5$+$$$$&gmMMMMMMMMMMMMx7&o&o&o&o    ",
"    33735imMMMMMMMMMgtttttttt7$+o$&:xMMMMMMMMMMMMMMM:$$+o&&o    ",
"    :e7telMMMMMMMMMMnttttttttt7&$o:tgMMMMMMMMMMMMMMMx&+$&oo&    ",
"    +:34iMMMMMMMMMMMMgttttttttt7o&etixMMMMMMMMMMMMMMMe$+o&oo    ",
"&&:&:et,gvMMMMMMMMMMMntttttttttt2eeitgMMMMMMMMMMMMMMMv:$&o&&ooo&",
"::::::tkffffgfffffffff7:3:::::::::::::txffffffffxfffff:+++::::::",
":::::,3kffffgxfffffffft:::::::::::::::7ffffffffffffffft:::::::::",
"::::,,>7fffffffffffffft7:::::::::::::::tffffffffffffffg7::::::::",
"::::,,>5ffffffffffffffxt:::::::::::::::7ffffffffffffftxt::::::::"
};
