/* XPM */
static char *door[] = {
/* columns rows colors chars-per-pixel */
"64 64 55 1 ",
"  c #353536",
". c #3A3734",
"X c #3C3834",
"o c #353538",
"O c #3D3D3D",
"+ c #553A1E",
"@ c #593D1F",
"# c #563C21",
"$ c #593E21",
"% c #573F28",
"& c #413A33",
"* c #423E3B",
"= c #3C403F",
"- c #564226",
"; c #5B4425",
": c #574228",
"> c #5D4629",
", c #5E492B",
"< c #45413C",
"1 c #49433C",
"2 c #604626",
"3 c #654C27",
"4 c #664D28",
"5 c #694E29",
"6 c #66502F",
"7 c #6B512E",
"8 c #654E32",
"9 c #6A4F30",
"0 c #665031",
"q c #6C5332",
"w c #6C5539",
"e c #755634",
"r c #785736",
"t c #775836",
"y c #7B5B36",
"u c #735738",
"i c #775A39",
"p c #7C5D39",
"a c #7D603D",
"s c #3F3E41",
"d c #444443",
"f c #4A4641",
"g c #635F5D",
"h c #676057",
"j c #65615D",
"k c #69635D",
"l c #636363",
"z c #696662",
"x c #6A6866",
"c c #696769",
"v c #666869",
"b c #686869",
"n c #815E36",
"m c #815E38",
"M c #826036",
/* pixels */
";:;,eiitqqqq44432@227yttppMpqqqq,;@37ttyttytppMy3;;3qyytqqq66444",
":;;,eittqqqq643322@3yyytpMMpqqqq2;;2yytttttypMMy3@;;tiytqqqq4444",
">:;>eiitqqqq4444;@@3qyytMMMMqqq6;;;2qyyttattMMMy2;;2tyiiqqqq4444",
";;:>etttqqqq6443;;;;qyyyyppyqqqq2;;2tttttttayMMy2;@2tqypqqqq6444",
":>>>qqqwette4443;@;;qqq755557qq6;;;37qqqqqqqttyt2;;;77wqtty76444",
";;->0qqqteae6444;;;3qqqq5533qqqq;;;;7qqqqqqqtyy72;;;6qqqtyyt4444",
":>->0qqqeaee4644;;;;qq7q53557qq6;;;;qqqqqqqqtyyt2@;2qqqqtyyt5344",
">-;>qeqqeeae6444;;;;qqe75435qqq7;;;,qqqqqqq7ttty;;;;qqqqttyy5345",
"++@$tyay7qqq4844+++;taMy7553qqq7@@+@yyyyyyyqqqq7@+@;tymy77qq5444",
"+++@yMMpqqqq4444-++@yMMy5333qqq0@@+@ypMMyyyyqqq7@++$yMMp77qq5444",
"+++@yaapqqqq4444#+#$yMMy53637qq0-++@ypppyyyqq7q6$++$yMmmq6q66444",
"+#+@eyiiuwww882,#+##eytt77000000++-@paaatqttwww6$++@tyiiiwww4444",
";;;:111fjzjgX..X-;;-1fffjvzjO..X-;-,hzzj<=<fzzzh,;;:1d1djvlg== X",
":>>:<=OdlbblOo .:;;:sssdlvvlO  .-;-,zvvl1==dvvvz,:;:<dsdlvvg==  ",
">--:===dlbvlX  .:;2%sssdlvvlX  X-;;,zvvld==dlvvz>;;:===dlvzg= = ",
"->--<<<1jzzj*XXX:;$%*1*dlzcg=.XX-;;,hzzj1=11jzzj,;;-<<<fjxhh=X  ",
"@@##,44,55848888%###2428qwww443,+++-466544,4wwwq#++-4334qwww2424",
"+++#44445355e9q9#+##433377qq4443-++#445344459qw9#+++3344q0e94344",
"+++#344535359999#++#35357e774443+++#44534444w977@++#3335qqqq5344",
"+++#354435559ee9##+#35557e774554@++#45554455qq75@++@35557e5q5444",
"#++#33357999nnnn$+#$ynyy55533533@++-tmnyq0qeynny@++@tyny55554435",
"+++#334577eennn5$++$ynnn55353333+++@rmmpewqqnnMy@++;yMny53343534",
"+++#35355e55nnnn$++$ymmy55335353#++-ymmmeq9ennny@++@ynnn55335353",
"+#+#4335e5e5nnnn$++$ryny55555333#++@rmmyqqqqypnr@++@yMmy55553535",
"+++#333599e9nnne$++$3555etee5353##+@tMyMrrrrqqq9@++$ymmn77q95353",
"+#+#33359e9ennny@+##,445tyye5333#++-yaMayyrrwqw9+++$ymmpqeqq3535",
"+++#39339e9ennMy$#+#3445eyte5533@++-tMMMrrrrqqw9@++@ymmneqq95535",
"+#+#335599e9nnny$+##3447eyye5333#++#ynMyyrrrq999@++@rnmmq9e53353",
"+++#3935erttiyte$++#99q7yMyy5553#++$eytyiyrr4433+++@rtyte9qq5353",
"+++#2335rryrrtte$++#99qqyyMy5533+++@etyryryr4443@++@erttqqq95435",
"++++3335rrryyire$++#99eqyMMM5533$++@errryrrt4433@++@errrw95q5535",
"++++3935rrrrttie$++#899qMyyy5553++++eyryryrr0433@++@erirwqeq4353",
"+#++3535tryr9ee9+++-4445yMMmeqq5$++#eyrypyMy5533@@@@tyytttqy4444",
"+++$3535tyrrqq99#++#4445yMMyqqqq+++$errrpMMy5533@@+@7ytyytyy4454",
"++++3335tirre9q9#+##4445nMmyqqq7@++$eryyMpMy5553@++@tyiiyqyq5444",
"##+@3455tyrrq9q5#+#-4445yMmyeqq0;++@errrppMy5553@+@@qttiyyyy5444",
";;;;3355yMmy5553;;;;4435yMMyttte;;;;5e9eMyMyqqq7@;@346qiqyyy5445",
";:::3535yMmn5353;;;23435MMMMytye;-;>99qqypyMqqqq;;3;67qqyyy75454",
">:;>3355ymmy5544;;;;3555ynnnytye;;;>9q9epMppqqq72;;;67qqtyyy5355",
";;:;5335ymmn5454;;;;3335ynnnytte>;:,9q9qyMyytqqq2;@;77qqqyyy5353",
":>;>4335yMMn7775;;;;3334yMMy5553;;;;3646ayMyyttq;;;;4465ppMy5555",
";;->3335aMnyeqe7;;;;3344MMMy5553;;;;3445yypMyyyq3;;;4446yppM5535",
"::>>3335MMMy77e7;;;;4445yMMy5353;;;;3455yyMpyqyy;;-;4444ppyy5353",
";;->3555yMMaeqq7;;;;4445yyya5533;-;;3545pMyMyyyy;;-,4446yyyy5353",
"#+##3535yMMMppyy@++#44447eqq5343@++#3455yMMpMpyy;+@@3,44qqtq5353",
"+++@3355pMMMMMpy@+++344477q75344@++#3435yMppMyyy@+++3444q77q5535",
"+++@3555yMppMMpy@@+#3345qqq05342@++#3636ypppMpMy@+++44447t7q3335",
"+++@,,35aaaayyyq@++#4644qww84442+++#,066yyyypaap@++@,446qwq63333",
"+++#<<<1jxxj<XX&#++#&s*fgzzg*XX&#++%jzkjf11fkzzk-+++-==fvvvj= XX",
"+++#<==<lvbj=  X##+#*ssdzcclooo.+++:jxxjdO*dzxbj-+++====jvvj    ",
"+++#<===lvvlX  X##+%*ssdlcclOoo.+++:jxvld**dlbbj-+++====vvvv    ",
"#++%1<11kkxj*XXX##+#***fzzzj*&.&#++;kkkh1111kzzh-+++<<<fhvkh=XX ",
"::;>eayawww04,,,;;$;,444ppmpuue9%;;:3767ryyyttie;-;;3344aaMq3333",
"::>>taMaqqqq6343;;2;4445mmmmrrrr:>;;3537pMMayytt;;;;3355MMMM4444",
"-;->yMaMwqqq4444;;;;4445pmmmirye;;;>3355yMnnyeye;;;;3334MMMM4444",
":>>>yyyyqqqq63332;;;4447ypppyyrr2;;;5555ynnyyyye3;;;3344MiMM5344",
"-;;2ppppatty3333;;$2errreqqtppmt2;;;errryyytanyy2;;;qtti66qq6444",
",;;2yMMMattt33532;22errrqqqqymMy2;;;errttttyyMMy2;;2tyyqq6qq6554",
";-;2yMapeyte4444;;;2eriuqq7qaant2$;2eyyryteyMMMy2;;;qayyqqqq4554",
"-,;3ypMpttye4443;$;2eurrqq7eyynr2;;2etrreyeayMMy2;;3qyiiqqqq5455",
";,-,yMaMytye44442;;2qqqqatttryyr2;;;57q7q7eqyyye2;;;qqqwqyy75444",
";-;,yMppyytt5444;;;;qqqqetttyrre2;;,qqqq7q7qeeye,;;;6qqqyyyt5444",
";;;;yyyatttt6444;;;>qqqqtttyryye;;;:qqqqqqqqeyte2;;;qq7qyyyy5353",
"-;;,yMMatttt4344;;;>0q7ettttryre2;;,0qqqqqqqette2;;26qq7ttyy5335"
};
