/* XPM */
static char *ad1c5445a3a24c05e3171146712b798eoT7NZWiv8nDk0JS0[] = {
/* columns rows colors chars-per-pixel */
"64 64 100 2 ",
"   c #4668C5",
".  c #476BC6",
"X  c #476BC7",
"o  c #476CC6",
"O  c #486CC7",
"+  c #486DC7",
"@  c #486EC7",
"#  c #496EC8",
"$  c #4A6FC8",
"%  c #4B6EC9",
"&  c #4A6FC9",
"*  c #4C6FC9",
"=  c #4A70C9",
"-  c #4B71C9",
";  c #4B71CA",
":  c #4C70CA",
">  c #4C71CA",
",  c #4D71CA",
"<  c #4D71CB",
"1  c #4D72CA",
"2  c #4D73CB",
"3  c #4E72CB",
"4  c #4E73CB",
"5  c #4D74CA",
"6  c #4E74CB",
"7  c #4F76CB",
"8  c #4F73CC",
"9  c #4F74CC",
"0  c #4F78CC",
"q  c #5075CD",
"w  c #5076CC",
"e  c #5076CD",
"r  c #5176CD",
"t  c #5077CD",
"y  c #5177CD",
"u  c #5177CE",
"i  c #5078CC",
"p  c #5178CD",
"a  c #5279CD",
"s  c #527BCD",
"d  c #5278CE",
"f  c #5279CE",
"g  c #5379CF",
"h  c #517BCE",
"j  c #527ACE",
"k  c #537BCE",
"l  c #537ACF",
"z  c #547BCF",
"x  c #537CCD",
"c  c #537DCD",
"v  c #527CCE",
"b  c #537DCE",
"n  c #547CCE",
"m  c #547CCF",
"M  c #547DCF",
"N  c #557DCF",
"B  c #547ECE",
"V  c #547FCE",
"C  c #557ECF",
"Z  c #547BD0",
"A  c #557CD0",
"S  c #557DD0",
"D  c #557ED0",
"F  c #567FD0",
"G  c #567ED1",
"H  c #5680D0",
"J  c #5780D0",
"K  c #5781D0",
"L  c #5780D1",
"P  c #5682D0",
"I  c #5783D0",
"U  c #5784D0",
"Y  c #5882D1",
"T  c #5883D1",
"R  c #5983D1",
"E  c #5883D2",
"W  c #5983D2",
"Q  c #5885D0",
"!  c #5984D1",
"~  c #5885D1",
"^  c #5886D1",
"/  c #5986D1",
"(  c #5987D1",
")  c #5984D2",
"_  c #5A85D2",
"`  c #5A86D2",
"'  c #5A86D3",
"]  c #5B86D3",
"[  c #5B87D3",
"{  c #5B88D3",
"}  c #5C88D3",
"|  c #5C89D3",
" . c #5C89D4",
".. c #5D89D4",
"X. c #5D8AD4",
"o. c #5E8BD4",
"O. c #5E8BD5",
"+. c #5E8CD5",
"@. c #5F8CD5",
"#. c #5F8DD5",
/* pixels */
"t t t t t t t t U ( ( ( ( ( ( ( ( ( ( ( ( ( ( ( 0 0 k 7 t t t t t t t t t t t t Q U { ( ( ( ( ( ( ( ( ( ( ( ( ( v i u u 7 7 u u ",
"t t t t t t t t v ( ( ( ( ( ( ( ( ( ( ( ( ( ( ( Q 0 0 7 t t t t t t t t t t t t k ( ( ( ( ( ( ( ( ( ( ( ( ( ( ( Q w 7 7 u u u 0 ",
"t t t t t t t t t U ( ( ( ( ( ( { ( ( ( Q Q Q { ( u u 7 t t t t t t t t t t t t t Q Q P H c c v H Q ( ( { ( ( Q ( k 7 k u 7 7 u ",
"t t t t t t t t t v ( ( ( ( ( ( Q N i 5 5 5 5 5 v L 7 Z t t t t t t t t t t t 8 = @ 5 3 - 5 5 5 - - 5 H Q ( ( { ( Q 0 7 u u 0 u ",
"t t t t G G G G G G X.#.#.#.#.R k k k k k k k k Z v 7 Z G G G G G G G G G Z 3 % % % t k k k k k c v k k N ( #.#.#.#.E E 0 u u 0 ",
"t t t t G G G G G G R #.#.X.N k k k k k k k k k v v k % k G G G G G G G 8 % % % % % 3 k k k k k v v k k z z | #.#.#. .Z u 7 7 u ",
"t t t t G G G G G G G X.| z k k k k k k k k k k v k k % % t G G G G z % % % % % % % @ i k k k k N k k k k k N | #.#.+.E 0 u u u ",
"t t t t G G G G G G G L k k k k k k k k k k k k k k k k % % t G G G 3 % % % % % * * * 3 k k k k i N k k k k i I #.#.+. .u 0 u 0 ",
"u 7 7 7 G G G G G G G * t k k k k k k k k k k k k k k k 3 % % k G 3 % % % % % % % % % % i z k k k k k k k k k k  .#.#.#.k 7 7 u ",
"= % ; 3 k z G G G G k % 3 k k k k k k k k k k k k k k k w % % % t % % % % % % % % % % % 3 z k k k k k k k k k k [ #.} ( 7 % X + ",
"        % % % 5 t Z 3 % % k k k k k k k k k k k k k k k k 3 % % % % % % % % % % % % % % * t k k k k k k k k k k Z Z v k 7 +     ",
"        % % % % % % % % % 3 k k k k k k k k k k k k k k v w % % % % % % % % % % % % % % @ 3 k k k k k k k k k k v k v k = =     ",
"        % % % % % % % % % % 7 k k k k k k k k k k k k k k k = % % % % % % % % % % % % % % % t z k k k k k k k k k k k k 7 5 o   ",
"        % % % % % % % % % % 3 k k k k k k k k k k k k k k k t * % % % % % % % % % % % % % % = k k k k k k k k k k k k k 5 5 =   ",
"        % % % % % % % % % % % t k k k k k k k k k k k k k k k 3 % % % % % % % % % % % % % % % k k k k k k k k k k k z k 5 5 5 o ",
"        % % % % % % % % % % % 3 k k k k k k k k k k k k k k k k % % % % % % % % % % % % % % % 3 k k k k k k k k k k v v 5 5 5 = ",
"X       % % % % % % % % % % % % t k k k k k k k k k k k k k k k 8 % % % % % % % % % % % % % % % k k k k k k k k k k k k 3 5 5 5 ",
"=       % % % % % % % % % % % % 3 k k k k k k k k k k k k k k k t % % % % % % % % % % % % % % % 3 k k k k k k k k k k k 5 5 5 5 ",
"7 %     % % % % % % % % % % % % % t k k k k k k k k k k k k k k k 3 % % % % * % % % % % % % % % * t k k k k k k k k k k 5 5 5 5 ",
"= =     % % % % % % % % % % % % % 3 k k k k k k k k k k k k k k k t % % % % * q t Z Z t Z 8 * % % = k k k k k k k k k k 5 5 5 5 ",
"5 5 o   % % % % % % % % % % % % % % t Z k k k k z k k k k k k k k k 3 % t Z G G G G G G G G G G t * t k k k k k k k k k 5 5 5 5 ",
"5 5 =   % % % % % % % % % * 7 7 t k G X. .( ( R v N k k k k k k k k G G G G G G G G G G G G G G G G k k k k k k k k k k 5 5 5 5 ",
"5 5 5 o % % % % % % % 8 Z G G G G G G X.#.#.X.#.#.| R N k k k k k ( #.L G G G G G G G G G G G G G G G [ Z k k k k k k k 5 5 5 5 ",
"5 5 5 = % % % % % 8 G G G G G G G G G W #.#.#.#.#.#.#.#.G k k z X.#.#.#.G G G G G G G G G G G G G G G R X.k k k k k k v 5 5 5 5 ",
"5 5 5 5 3 % % % t G G G G G G G G G G G X.#.#.#.#.#.#.#.#.G G ( #.#.#.#.L G G G G G G G G G G G G G G G X.( k k k k k k 5 5 5 5 ",
"5 5 5 5 7 % % 8 G G G G G G G G G G G G E #.#.#.#.#.#.#.#.#.L #.#.#.#.#.X.G G G G G G G G G G G G G G G R #.G k k k k k 5 5 5 5 ",
"5 5 5 5 k 3 % Z G G G G G G G G G G G G G X.#.#.#.#.#.#.#.#.X.#.#.#.#.#.#.U G G G G G G G G G G G G G G G X.( z k k k k 5 5 5 5 ",
"5 0 5 5 k k * G G G G G G G G G G G G G G R #.#.#.#.#.#.#.#.#.#.#.#.#.#.#.X.G G G G G G G G G G G G G G G R [ k k k k k 5 5 5 5 ",
"{ { ( Q { P 7 G G G G G G G G G G G G G G G X.#.#.#.#.#.#.#.#.#.#.#.#.#.#.#.W G G G G G G G G G G G G G G G R k v P ( { L Q P Q ",
"( Q ( ( #.#.[ G G G G G G G G G G G G G G G R @.#.#.#.#.#.#.#.#.#.#.#.#.#.#.X.G G G G G G G G G G G G G G G G #.#.#.#.#.{ ( ( Q ",
"( ( ( ( #.#.#.U G G G G G G G G G G G G G G G X.#.#.#.#.#.#.#.#.#.#.#.#.#.#.#.E G G G G G G G G G G G G G G G X.#.#.#.#.( ( ( ( ",
"( ( ( ( #.#.#.| G G G G G G G G G G z t q 3 * k R [ X.#.#.#.#.#.#.#.#.#.#.#.#.X.G G G G G G G G G G G G G G G R #.#.#.#.( ( ( ( ",
"( ( ( ( #.#.#.#.W G G G G G G k 3 % % % % % % % k k N N { #.#.#.#.#.#.#.#.#.#.#.R G G G G G G G G G G G G G G G X.@.#.#. .( ( ( ",
"( ( ( ( #.#.#.#.X.G G G G z 3 % * % % % % % % % = k k k v G #.#.#.#.#.#.#.#.#.#.( 5 q q 8 * 3 8 7 t Z G G G G G W @.#.@.( ( ( ( ",
"( ( ( ( #.#.#.#.#.W G G t * % % % % % % % % % % % t k k z k v X.#.#.#.#.#.X.L N k 3 % % % % % % % % * * 7 Z G G G X.@.@.( ( ( ( ",
"( ( ( ( #.#.#.#.#.X.Z t % * % % % % % % % % % % @ 3 k k k k k k  .#.#.X.L k k v z t % % % % % % % % % * % % 8 G G E @.@.( ( ( ( ",
"( ( ( ( #.#.#.#.#.#.G * % % % % % % % % % % % % * % t z k k k k N | #.N k k k k k k 3 % % % % % % % % % % % % * Z G  .#.( ( ( ( ",
"( ( ( ( #.#.#.#.#.#.G % % % % % % % % % % % % % * * 3 k k k k k k N | k k k k k k k w % % % % % % % % % % % % % 8 L E #.( ( ( ( ",
"( ( ( ( #.#.#.#.#.#.k 3 % % % % % % % % % % % % % % @ t k k k k k k v z k k k k k k k 3 % % % % % % % % % % % % % k G  .( ( ( ( ",
"( ( ( ( #.#.#.#.#.X.k t % % % % % % % % % % % % % * * 3 k k k k k k k k k k k k k k k t % % % % % % % % % % % % % 8 L U ( { U U ",
"0 k i i P R R  .#.| N k 3 @ % % % % % % % % % % % % % % t k k k k k k k k k k k k k k k 3 @ * % % % % % % % % % % 8 G t 3 5 5 5 ",
"5 = 5 5 k k k k z N k k t * % % % % % % % % % % % % % % 3 k k k k k k k k k k k k k k k t @ * * % % % % % % % % % = % % o 5 5 5 ",
"5 5 5 5 k k k k k k k k z 3 @ * % % % % % % % % % % % % % 0 k k k k k k k k k k k k k k k 3 % % % % % % % % % % % % % %   = 5 5 ",
"5 5 5 5 k k k k k k k k z i * * % % % % % % % % % % % % % 3 k k k k k k k k k k k k k k k k % % % % % % % % % % % % % %   o 5 5 ",
"5 5 5 5 k k k k k k k k k k 3 * % % % % % % % % % % % % % % 7 k k k k k k k k k k k k k k k 3 % % % % % % % % % % % % %     = 5 ",
"5 5 5 5 k k k k k k k k k z t @ % % % % % % % % % % % % % % 3 k k k k k k k k k k k k k k k t % % % % % % % % % % % % %     o 5 ",
"5 5 5 5 k k k k k k k k k k k 3 % % % % % % % % % % % % % % % k k k k k k k k k k k k k k k k = % % % % % % % % % % % %       = ",
"5 5 5 3 k k k k k k k k k k z t % % % % % % % % % % % % % % % 3 k k k k k k k k k k k k k k k k % % % % % % % % % % % %       @ ",
"= 5 5 5 k k k k k k k k k k k k 3 % % % % % % % % % % % % % % % t k k k k k k k k k k k k k k k 3 % % % % % % % % % % %         ",
"o 5 5 5 k k k k k k k k k k k k 0 % % % % % % % % % % % % % % % 3 k k k k k k k k k k k k k k k k % % % % % % % % % % %         ",
"  = 5 5 k k k k k k k k k k k k k 3 % % % % % % % % % % % % % % % t k k k k k k k k k k k k k k v 3 % % % % % % % % % %         ",
"  o 5 5 k k k k k k k k k k k k k 7 % % % % % % % % % % % % % % @ 3 k k k k k k k k k k k k k k k 7 % % % % % % % % % %         ",
"    = 5 N k k k k k k k k z z N L [ Z k 8 8 ; = % % % % % % % % * % t z k k k k k Z k G G k k k k k 3 @ * * % % % % % %         ",
"    @ 5 k k k k k k k N v I #.#.#.#. .G G G G Z 7 8 % % % % % % * % 3 k k z k N ( X.#.#.#.#.X.R v k t * % * % % % % % %         ",
"      = k k k k k k k N #.#.#.#.#.#.#.E G G G G G G Z 8 % % % % % % @ t k Z ( #.#.#.#.#.#.#.#.#.#.( z 3 % % % % % % % %         ",
"      o k k k k k k P #.#.#.#.#.#.#.#. .G G G G G G G G t % % % % * * 3 R @.#.#.#.#.#.#.#.#.#.#.#.#.X.z % % % % % % % %         ",
"        w k k k k N @.#.#.#.#.#.#.#.#.#.E L G G G G G G G Z & & % % * q } #.#.#.#.#.#.#.#.#.#.#.#.#.#.#.t % % % % % % %         ",
"        3 k k k z ( #.#.#.#.#.#.#.#.#.#.+.Z G G G G G G G G G & % % t G R X.#.#.#.#.#.#.#.#.#.#.#.#.#.#.X.= % % % % % %         ",
"        @ k v N N #.#.#.#.#.#.#.#.#.#.#.#.E Z G G G G G G G E Z % 3 G G G X.#.#.#.#.#.#.#.#.#.#.#.#.#.#.X.R % % % % % *         ",
"3 5 5 3 t k N k Q #.#.#.#.#.#.#.#.#.#.#.#.+.L G G G G G G G Z Z t G G G G R #.#.#.#.#.#.#.#.#.#.#.#.#.#.X.X.7 % % % % * o % @ 3 ",
"t t t t t t P Q Q ( ( ( ( ( ( ( ( ( ( ( ( ( h u u u u 7 u 0 u 0 0 u u u t t ( ( ( ( ( ( ( ( ( ( ( ( ( ( ( ( 0 o = 8 t t 7 t t t ",
"t t t t t t v { ( ( ( ( ( ( ( ( ( ( ( ( ( ( U 0 u 7 u u 0 u 0 u u u 7 7 t t k ( ( ( ( ( ( ( ( ( ( ( ( ( ( ( Q 0 7 t t t t t t t ",
"t t t t t t t Q ( ( ( ( ( ( ( ( ( ( ( ( ( ( ^ Z u 0 0 u 7 u u 7 7 u u u k 0 7 L ( ( ( ( ( ( ( ( ( ( ( ( ( ( { Z 0 t t t t t t t ",
"t t t t t t t k ( ( ( ( ( ( ( ( ( ( ( ( ( ( ^ U 7 u u 7 u 0 u u 0 u 7 u 7 0 0 Z ( ( ( ( ( ( ( ( ( ( ( ( ( { U U t t t t t t t t "
};
