/* XPM */
static char *_c84b0fcb7f04b98922db3af59c6a334NvT1DpJw4LamAg1I[] = {
/* columns rows colors chars-per-pixel */
"64 64 77 1 ",
"  c #AE30BA",
". c #B031BB",
"X c #B032BC",
"o c #B132BC",
"O c #B132BD",
"+ c #B133BD",
"@ c #B233BE",
"# c #B333BE",
"$ c #B334BE",
"% c #B334BF",
"& c #B335BF",
"* c #B434C0",
"= c #B534C0",
"- c #B435C0",
"; c #B535C0",
": c #B535C1",
"> c #B536C1",
", c #B636C1",
"< c #B635C2",
"1 c #B735C2",
"2 c #B735C3",
"3 c #B636C2",
"4 c #B736C2",
"5 c #B637C2",
"6 c #B737C2",
"7 c #B736C3",
"8 c #B737C3",
"9 c #B837C3",
"0 c #B936C4",
"q c #B837C4",
"w c #B937C5",
"e c #B838C3",
"r c #B938C3",
"t c #B838C4",
"y c #B938C4",
"u c #B839C4",
"i c #B939C5",
"p c #BA38C5",
"a c #BB38C5",
"s c #BA39C5",
"d c #BA3AC5",
"f c #BB3AC5",
"g c #BB39C6",
"h c #BA3AC6",
"j c #BB3AC6",
"k c #BB3BC6",
"l c #BC3AC6",
"z c #BC3BC6",
"x c #BC3AC7",
"c c #BC3BC7",
"v c #BD3BC7",
"b c #BC3CC7",
"n c #BD3BC8",
"m c #BE3BC8",
"M c #BD3CC8",
"N c #BD3DC8",
"B c #BE3CC8",
"V c #BE3DC8",
"C c #BE3CC9",
"Z c #BE3DC9",
"A c #BF3DC9",
"S c #BE3EC9",
"D c #BF3EC9",
"F c #BF3ECA",
"G c #BF3FCA",
"H c #C03ECA",
"J c #C03FCA",
"K c #C140CB",
"L c #C240CB",
"P c #C240CC",
"I c #C340CC",
"U c #C241CC",
"Y c #C341CC",
"T c #C341CD",
"R c #C342CD",
"E c #C442CD",
"W c #C443CE",
/* pixels */
"wwwwwwwwCCGGGJGCGCYCGGCYjwwwwwwwwwwwwwwwCCJCJCCJCYCCGCYCjjwwwwww",
"wwwwwwwwjJGGGCGJGCCGGCGGvwwwwwwwwwwwwwwwjJCJCJJCJCGGGCCGCqwwwwww",
"wwwwwwwwwCCJCGCJYCCYCfGCJwwwwwwwwwwwwwwwwCJfCjujjjCGGGCGCjwwwwww",
"wwwwwwwwwjJCJJCGfju&3333jjwwwwwwwwwwwww9#@3&3@&333idCCYGCCwwwwww",
"wwwwCCCCCCKWWWWJddddddddjj9HvHCCCCCCCv3@#&uuddddjuddfYWWWWJCwwww",
"wwwwCCCCCCKWWJxxdddddddduju&wvCCCCCC9@##&#3jddddujddddYWWWHCwwww",
"wwwwCCCCCCCKKjxjddddddddjuj&#jCCCCf3@@3@#&@uddddjddddddWWWWJwwww",
"wwwwCCCCCCCCjijiddddddddujuu&#9CCf@3@3@@&&@udddfuddddddfWWEKwwww",
"wwwjCCCCCCC*uujuddddddddddfu3&@jC3&&@u@@@@@@uvufddddddddEWWWjjww",
"#@&&jjCCCCj@3jddddddddddddfu9#&#j@3#@@@@u@u@&ufuddddddddJWYCu. .",
"    @@@ujj3*@udddddddddddduvj&#&@@@@@@@@@u@@@uddddddddddCjju&@  ",
"    @33@*@*@@uddddddddddddjuju&&3@3@u@@@@@@@@uddddddddddjjuj&&  ",
"    @@@@@3@@@&ujddddddddddddddu@@@@3@@@u@@@u@@udddddfufdfufu39. ",
"    3@3@@#&3@@uuddddddddddddddu@3@@@u@@@u@@@@@&udddduvfduvuv&&# ",
"    @@@3@3&#&#@uddddddddddddfduu@3@3@@@@@@@@@@@uddddfufuvufu&&&.",
"    3@@@@@#&#&&&ddddddddddddfuuu@@@@@@u@@@u@u@@udddduvuvufff9&9#",
".   &#3@3@@@@@u@uudddddddddddddd&@@@@@@@3@3#@@@@ufdddddddddd&&&&",
"#   #&&@@@@3@u@@&ddddddddddddddduu@3@3@3@@@&@3@3&fdddddddddd&9&9",
"3.  @3#33@3@@@u@&uufdddddddddddddu@@3@@@@@@&3@@@@udddddfdddd&0&&",
"&#  @@@@@@@@@@@@&3judddddddddddduu@3@@33jvjuju3@@udddddfdddd&&#9",
"9&. @@@33@@@3#@3&&ujduudddddujujufu&3CCCCCCCCCCvu&9vuufu&H&H%%%%",
"&&@ 3@@@@@@3@&33jvfKYYYffudddujuuuvvCCCCCCCCCCCCvHujuvuvH&HH%0H%",
"&&&.@3@33@33jvCCCCCEWWWWWYYfddjjuYEJCCCCCCCCCCCCCCCJvuvu&Ha&a%##",
"&9u@@@@@@3vCCCCCCCfYWWWWWWWWfdjjYWELCCCCCCCCCCCCCCCJYuufH&aH%%%%",
"&&&&&&#@jCCCCCCCCCCCHWWWWWWWWJjJEWWWJCCCCCCCCCCCCCCCYYddffdd$&&&",
"&9#0u@&9CCCCCCCCCCCCJWWWWWWWWECEWWWWYCCCCCCCCCCCCCCCCWfdffdd&&&%",
"%&&%j3@CCCCCCCCCCCCCCHWWWWWWWWWWWWWWEJCCCCCCCCCCCCCCfEGuffudH%f&",
"%0&0j33CCCCCCCCCCCCCJJWWWWWWWWWWWWWWEJCCCCCCCCCCCCCCCYYdffff#%%%",
"JJJHJv3CCCCCCCCCCCCCCCJEWWWWWWWWWWWWWWJJCCCCCCCCCCCCCCCdffDYHHH0",
"HHJJEEJCCCCCCCCCCCCCCCJEWWWWWWWWWWWWWWHCCCCCCCCCCCCCCCCWWWWWHHHH",
"HHHJEWWJCCCCCCCCCCCCCCCJWWWWWWWWWWWWWWWJCCCCCCCCCCCCCCCYWWWWHHHH",
"HHHJWWWECCCCCCCCCvjw393jJHWWWWWWWWWWWWWHCCCCCCCCCCCCCCCYWWWEHfHH",
"CGGGWWWWJCCCCCCdu@@u@@@@uddCKWWWWWWWWWWWJCCvCCCCCCCCCCCCEWWWJGGG",
"KGCCWWWWJCCCCju@@@@@3@3@uddddfWWWWWWWWWWJu9933333jvCCCCCJWWWJJJC",
"CGCGWWWWEJCCj@3@@&@@@@@3@uddddfYWWWWEJJvv&&&@&#3@3@3ufCCCJEWGJGC",
"GGYCWWWWWHCj&@@@&&@@u@@@@&ddddddEWWECjjwu9&@@&&#@@@@@@uCCJWWCCGJ",
"GGGGWWWWWWJ=3@@@&#3@@3@3&&uudddddWWfjjudddu@@3@3@3@@@3@&CHHWJJGC",
"GGJCWWWWWWv=@@@3&&@@@@@@&&&vddddddYdjuddddu@@@@#@@3@@@@@2JHWGCGJ",
"GJGCWWWWWKj33@#3@@3@@3#&#&&9ddddddfdddddddj3@3#&@@@@@@@u*wCHGGCJ",
"CCGJWWWWWYj3#&##@3@@@@3#&#&3ddddddddddddujuu@@@33@3@u@@@*qCJCGCC",
"wq99vfYYWWddu@#&3@@@u@@@@@@@uddddddddddddddd&&&#@u@@@@@@*qhi*3@3",
"3=#3jjujdfddu@&#@@@3@@@u3@u@&ddfdddddddddddd9&#&@@@@@@u@**** 33&",
"*3@&ddjuddddu&&&3@3@@@@@@@@3@uuuddddddddddddu3&&@@@u@u@@* **.&&&",
"3*3&ddujdddddu&&@@@@@u@@3@@@&uujddddddddddddju#&u@@@@@u@****..&3",
"&9&9dddddddduuu@u@@@@@@@@@@@&&uddddddddddddddd3@@@@u@@@@@3@3  #&",
"&&&&ddddddddduu@@@@u@u@@3@3@&@@dddddddddddddddu&@@@@3@3@@@@#  .&",
"&03&dddddddddddu@@@@u@u@@@@3&&@uddddddddddddddd&@@@@@@@3@3#&  .&",
"&#&&dddddddddddd@@@@@@@@3@@#&&@udddddddddddddddu@@u@3@@@@@&#  ..",
"&&%0dddddddddddd*@*@>@@>@@@>@@>>ddddddddddddijiju@@@@3@3@@@@    ",
"#&%&ddddddddddddi@@*>@@>@>@@>@@@uddddddddddddijiu@&&@@@@3@u@    ",
".$%%ddddddddddddj***@@@@>@>@>@*@@uddddddddddddijj3&&@3@@@u@@    ",
".#%0ddddddddddddj3*=@>>@@@>@@*@*@>ddddddddddddjiuu&&@@3@@@@@    ",
"..#&fffddddddddfCJCwq2*=@>@&&&*@@@dddddddjudnxxxju&&&#@3@u@@    ",
"...#uffuddddfDWWWWJCCCCCu>@@&&@*@*uddddfGWWWWWGGfju@#&@@@@@@    ",
".  #ffffdddGWWWWWWWCCCCCCCdu#@*@@u@uddYWWWWWWWWWEYuu&@@3@@@u    ",
"   .fuufddfWWWWWWWWJCCCCCCCCj=@*@@@@fWWWWWWWWWWWWWLd#3&#u@@@    ",
"    ujujddYWWWWWWWWWJCCCCCCCCv3@@@@uJEWWWWWWWWWWWWWEj@*@@@@3    ",
"    &ujjdYWWWWWWWWWWJCCCCCCCCCv=u@jCJEWWWWWWWWWWWWWWJ3@*@@@@    ",
"    @ujjdWWWWWWWWWWWWJHCCCCCCCCv@ufCCEWWWWWWWWWWWWWWKC*@@@@@    ",
"#393uvjjYWWWWWWWWWWWWHHCCCCCCCCCufCCCJWWWWWWWWWWWWWWWE3@u@@u@@@&",
"wwwwwwCCCGGCGGCGGCJJJCjwwwwwwwwwwwwwwwCJFFFFGJJCJCGGGGw@@39wjwww",
"wwwwwwwJGCGGCGCGJCGCCCCwwwwwwwwwwwwwwwwJFFFFCCGGCKGGGJCwwwww9www",
"wwwwwwwCGGYCCGYCJGGGJCCvwwwwwwwwwwwwwwwCFFJCJGCJGJGGJCCvwwwwwwww",
"wwwwwwwxGGCGGGCGCGGGGJCCwwwwwwwwwwwwwwwaFFFGJCGJCCGGCJCCwwwwwwww"
};
