/* XPM */
static char *fc8d5888eb174733f44f307d8a9f63fblbTKml4Wexcez5Nr[] = {
/* columns rows colors chars-per-pixel */
"64 64 86 1 ",
"  c #E56725",
". c #E56A26",
"X c #E66A26",
"o c #E66B26",
"O c #E56C26",
"+ c #E66C26",
"@ c #E66D26",
"# c #E76E27",
"$ c #E76F27",
"% c #E76D28",
"& c #E76E28",
"* c #E76F29",
"= c #E67027",
"- c #E77027",
"; c #E77128",
": c #E77029",
"> c #E77228",
", c #E7722A",
"< c #E77429",
"1 c #E7762A",
"2 c #E87029",
"3 c #E87129",
"4 c #E87228",
"5 c #E87229",
"6 c #E87329",
"7 c #E8712A",
"8 c #E8722A",
"9 c #E8732A",
"0 c #E87629",
"q c #E8742A",
"w c #E8752A",
"e c #E9742B",
"r c #E9752B",
"t c #E8762A",
"y c #E9762A",
"u c #E8762B",
"i c #E9762B",
"p c #E8772B",
"a c #E9772C",
"s c #E8792B",
"d c #E87A2B",
"f c #E97A2B",
"g c #E97B2B",
"h c #E9782C",
"j c #E9792C",
"k c #EA792C",
"l c #EA792D",
"z c #E97A2C",
"x c #E97A2D",
"c c #E97B2D",
"v c #EA7A2D",
"b c #EA7B2D",
"n c #E97C2C",
"m c #E97D2C",
"M c #E97C2D",
"N c #EA7C2D",
"B c #EA7D2D",
"V c #E97F2D",
"C c #EA7C2E",
"Z c #EA7D2E",
"A c #EB7D2E",
"S c #EA7E2E",
"D c #EA7F2E",
"F c #EA802D",
"G c #E9822D",
"H c #EA802E",
"J c #EA802F",
"K c #EA812F",
"L c #EB812F",
"P c #EA832E",
"I c #EB822F",
"U c #EA842E",
"Y c #EA852F",
"T c #EB8330",
"R c #EB8430",
"E c #EB8530",
"W c #EB8631",
"Q c #EB8731",
"! c #EC8731",
"~ c #EB8831",
"^ c #EC8831",
"/ c #EC8832",
"( c #EC8932",
") c #EC8A32",
"_ c #EC8B32",
"` c #EC8B33",
/* pixels */
"yyyyyyyyGYYYYYYYYYYYYYYYfyyyyyyyyyyyyyyyGYYYYYYYYYYYYYYYfyyyyyyy",
"yyyyyyyyfYYYYYYYYYYYYYYYGyyyyyyyyyyyyyyyfYYYYYYYYYYYYYYYGyyyyyyy",
"yyyyyyyyyGYYYYYYYYYWYGYYYfyyyyyyyyyyyyyyyGYAAV<VVGYYWYYYYfyyyyyy",
"yyyyyyyyyfYYYYYYYf<,==7ydVyyyyyyyyyyyyy7@@=,=<=<--<fGYYYYGyyyyyy",
"yyyyAAAAAA~````AzzaaazzzffqzAAAAAAAAAz7%%%<zzzzaffzaz!````TAyyyy",
"yyyyAAAAAAG```zfazzzzzaaafy*zAAAAAAA7%%%%%*zaazzazzaazT```!Ayyyy",
"yyyyAAAAAAAWWzzzazzzzazzzzz,*azAAAz%%%%%%%*qzzazzzzzzzz````Gyyyy",
"yyyyAAAAAAAAzzazzzaazzazzaa<%%aAAA7%%%%%%%**zazzzaazzazA```~yyyy",
"yyyyAAAAAAA%azazzzaazzazazzz*%%aA7#%%%%%%%%%azaaazzzzzza!```zyyy",
"#@-7lzAzAAa%7zazazzzzazzzzaa<%%%a%%%%%%%%%%%*zzzzzaaaazzT`!Tyooo",
"    %%*7az7%*azzazzzzzaazazzz*%%%%%%%%%%%%%%%<azzazzzzazzzzz,o  ",
"    %%%%%%%%o*zazzaaazzzzzzzzq%*%%%%%%%%%%%%**zzzzazzazzzzaz=@  ",
"    %%%%%%%%*%yaazzzzzzaaazzza**%%%%%%%%%%%%%%yzaazzzzaaazzz,yo ",
"    %%%%%%%%%%*zzzazaazzzzzazaq*%%%%%%%%%%%%%%*zzzzaazzzzzaz==@ ",
"    %%%%%%%%%%*<zazazzazzzzazzz*%%%%%%%%%%%%%%%azzzaazzzzazz<==@",
"    %%%%%%%%%%**zazzzazzaazzazzq%%%%%%%%%%%%%%%%aazzzzaazzzz==,=",
"o   @%%%%%%%%%%%azazzzazzazzzazz7%%%%%%%%%%%%%%%yzzazzaazzaz,=<-",
"@   *@%%%%%%%%%%*zzzazazzazazzaza%%%%%%%%%%%%%%%*zzzazzzzazz=7-<",
"7o  %%%%%%%%%%%%*azazazzzzazaazzz%%%%%%%%%%%%%%%*aazazzzzzaa<-<-",
"<=  %%%%%%%%%%%%o%zzzzzaazzzzzzaza%%%%%eaazaay%%o*azzzaaazzz-<-<",
"<=o %%%%%%%%%%%%@*ayazzzzzaazaazzz%7azAAAAAAAAAAa*azzazzzaaz<-<-",
"==@o%%%%%%%%%%7yaaA`!TWAAzzzzzzzzaAzAAAAAAAAAAAAAzaazzazzzzz-<-<",
"<=7o%%%%%%*7zAAAAAAW``~``~TzazzazW`TAAAAAAAAAAAAAAATzazzazzz<-<-",
"=y=*%%%%@,AAAAAAAAAT``````~~AzzzW``WAAAAAAAAAAAAAAAT!zzaazzf-<-<",
"==y=***%aAAAAAAAAAAA!````````AyW````TAAAAAAAAAAAAAAA`Tzzzzaz7y==",
"y=y=<*o7AAAAAAAAAAAAG`````````A`````WAAAAAAAAAAAAAAAA`zazazz=-=y",
"<===z**AAAAAAAAAAAAAAW```````````````GAAAAAAAAAAAAAAA~Tzzzaa===y",
"=y=yay*AAAAAAAAAAAAAAT```````````````WAAAAAAAAAAAAAAAGTzazzzyy==",
"YYYYYA7AAAAAAAAAAAAAAAW```````````````TlAAAAAAAAAAAAAAGzAAIYAGGV",
"YYYY__TAAAAAAAAAAAAAAAT````````````````AAAAAAAAAAAAAAAA`~```YYYY",
"YYYY```GAAAAAAAAAAAlAAA!```````````````IAAAAAAAAAAAAAAA~_```YYYY",
"YYYY````AAAAAAAAAzzay7%zTW!````````````!AAAAAAAAAAAAAAAT````YYYY",
"YYYY````IAAAAAAa7%%%%%%%aazzW```````````TzAAAAAAAAAAAAAA!```WYYY",
"YYYY````!AAAAz7%*%%%%%%%*zzzzA``````````Ta7y7%77aazAAAAAT```YYYY",
"YYYY`````GAAa%%%%%%%%%%%*<azazz!`````WAfa*%%%%%%%%%%ezAAl!``YYYY",
"YYYY`````!Aa%%%%%%%%%%%%**zzazza!```Azzyz<%%%%%%%%%%%%azAT``YYYY",
"YYYY``````A*%%%%%%%%%%%%*%yaazzzz~`Azazzaz*%%%%%%%%%%%%7zAW`YYYY",
"YYYY``````z%%%%%%%%%%%%%%%*zzzazzzTzzzzazza*%%%%%%%%%%%%7AG`YYYY",
"YYYY``````z*%%%%%%%%%%%%%%*<zazazzzazzzazaz*%%%%%%%%%%%%%aA!YYYY",
"YYYY`````Wza%%%%%%%%%%%%%%**zazzzazzaazzzaz<%%%%%%%%%%%%%7AIY!GG",
"y<f<AAG```aa%%%%%%%%%%%%%%%%azazzzazazzzaazz,*%%%%%%%%%%%yAa7=y=",
"=,-<ffazzzzza%%%%%%%%%%%%%%%*azzazazzzazzzzaq*%%%%%%%%%%%%%%o=y=",
"<-<-zazzzzazz**%%%%%%%%%%%%%*azazazzzazazzzaa*%%%%%%%%%%%%%%o===",
"-<-<zzzaazzzza%%%%%%%%%%%%%%@%zzzzzazazzaazzzq%%%%%%%%%%%%%% o=y",
"=yy=aazzzzaaaz*%%%%%%%%%%%%%%oazazzazzazzzazza,*%%%%%%%%%%%%  @=",
"====zzzaazzzzz<*%%%%%%%%%%%%%**zazzazazzzazzzzq*%%%%%%%%%%%%  o,",
"y=-yzzzaazzzzaz*%%%%%%%%%%%%%%%azzzzzzaazzaaaaz*%%%%%%%%%%@*  o@",
"y==7aazzzzaazzay%%%%%%%%%%%%%%%%zaazazzzazzzzzzq%%%%%%%%%%*@   .",
"==<=zazzzazzaazz**%%%%%%%%%%%%%%qaazazzzazzzzzza*%%%%%%%%%%%    ",
"o==yzazazzazzzza<*%%%%%%%%%%%%%%,zzzzzaazzaaaazz<*%%%%%%%%%%    ",
" ==yzzazaazzzzzaz**@%%%%%%%%%%%%*qzazazzzazzzzaza*%%%%%%%%%%    ",
" @==azzzzzzaaazzay%*%%%%%%%%%%%%**zazzazzzazzazzza%%%%%%%%%%    ",
"  ==zzzaazzzzazAATzay7%%%%%%%%%%*%<zzzazaazAzzzzza**o*%%%%%%    ",
"  o,zzzazzazzG~```WAAAAza%%%%%%%%%*azzzzT`````WGzzy*%%%%%%%%    ",
"   @zzzzzazA```````TAAAAAAz7%%%%%**ayz!`````````~Wz*%%%%%%%%    ",
"   ozaazzzA````````!AAAAAAAAa%%%%o**A``````````````a%%%%%%%%    ",
"    <zzaaz~`````````GlAAAAAAAA7%%%*7!```````````````y%%%%%%%    ",
"    ,azzzW```````````AAAAAAAAAz%%%aAG```````````````W7%%%%%%    ",
"    *yfzz````````````IAAAAAAAAAz%7AAA!```````````````A%%%%%%    ",
"=77,aaAzT````````````!AAAAAAAAAA7AAAAT```````````````~7@%%%%@@@7",
"yyyyyyGGGYYYWYYYYYYYYYfyyyyyyyyyyyyyyyGWYYYYYYYYYYYYYYyo@7yyyyyy",
"yyyyyyfYWYYYYYYYYYYYYYGyyyyyyyyyyyyyyyzGYYYYYYYYYYYYYYGyyyyyyyyy",
"yyyyyyyGYYYYYYYYYYYYYYYfyyyyyyyyyyyyyyyGYYYYYYYYYYYYYYYfyyyyyyyy",
"yyyyyyyfYYYYYYYYYYYYYYWGyyyyyyyyyyyyyyyfYYYYYYYYYYYYYYYGyyyyyyyy"
};
