/* XPM */
static char *clock_41[] = {
/* columns rows colors chars-per-pixel */
"64 64 17 1 ",
"  c #181616",
". c #1E1C1C",
"X c #752802",
"o c #B26411",
"O c #DC9613",
"+ c #E6A01D",
"@ c #E9B115",
"# c #CCCC00",
"$ c yellow",
"% c #F0CC40",
"& c #FAD64A",
"* c #FDF55F",
"= c #3A53AC",
"- c #6C6C89",
"; c #4968D8",
": c #FBF7B7",
"> c None",
/* pixels */
">>>>>>>>>>>>>>>>>>>>>>>>>>>oooooooooo>>>>>>>>>>>>>>>>>>>>>>>>>>>",
">>>>>>>>>>>>>>>>>>>>>>>oooo*****%%%%%oooo>>>>>>>>>>>>>>>>>>>>>>>",
">>>>>>>>>>>>>>>>>>>>>oo****&&&&&&&&&&%%%%oo>>>>>>>>>>>>>>>>>>>>>",
">>>>>>>>>>>>>>>>>>>oo**&&&&&&&&&&&&&&&&&&%%oo>>>>>>>>>>>>>>>>>>>",
">>>>>>>>>>>>>>>>>oo**&&&&&&&&&&&&&&&&&&&&&&%%oo>>>>>>>>>>>>>>>>>",
">>>>>>>>>>>>>>>oo**&&&&&&&&&&&&&&&&&&&&&&&&&&%%oo>>>>>>>>>>>>>>>",
">>>>>>>>>>>>>>o@*&&&&&&&&@@          @@&&&&&&&&%@o>>>>>>>>>>>>>>",
">>>>>>>>>>>>>o@*&&&&&&&@                @&&&&&&&%@o>>>>>>>>>>>>>",
">>>>>>>>>>>>o@*&&&&&&@                    @&&&&&&%@o>>>>>>>>>>>>",
">>>>>>>>>>>o@*&&&&&@                        @&&&&&%@o>>>>>>>>>>>",
">>>>>>>>>>o@*&&&&&@                          @&&&&&%@o>>>>>>>>>>",
">>>>>>>>>o@*&&&&&                              &&&&&%@o>>>>>>>>>",
">>>>>>>>>o*&&&&&                                &&&&&%o>>>>>>>>>",
">>>>>>>>o*&&&&&                                  &&&&&%o>>>>>>>>",
">>>>>>>>o*&&&&@=            .............        @&&&&%o>>>>>>>>",
">>>>>>>o*&&&&@===        ...................      @&&&&%o>>>>>>>",
">>>>>>>o*&&&&====      .....................--     &&&&%o>>>>>>>",
">>>>>>o*&&&&@=====   ........................--    @&&&&%X>>>>>>",
">>>>>>o*&&&&======= .........................---    &&&&%X>>>>>>",
">>>>>>o*&&&@=======;..........................---   &&&&%X>>>>>>",
">>>>>o*&&&&=======;;;.........................---.  @&&&&%X>>>>>",
">>>>>o*&&&@======;;;;;........................----   @&&&%X>>>>>",
">>>>>o*&&&@=====;;;;;;;.......................----.  @@&&%X>>>>>",
">>>>>o*&&&=====;;;;;;;;;.....................------   @@&%X>>>>>",
">>>>o*&&&&=====;;;;;;;;;;...................-------.  @@&&%X>>>>",
">>>>o*&&&&====;;;;;;;;;;;;................---------.  @@@&%X>>>>",
">>>>o*&&&&====;;;;;;;;;;;;;.......--...------------.  @@@&%X>>>>",
">>>>o*&&&&====;;;;;;;;;;;;;........---------------..  @@@&%X>>>>",
">>>>o*&&&&===;;;;;;;;;;;;;;;...**...-------------...  @@@@%X>>>>",
">>>>o*&&&&===;;;;;;;;;;;;;;;;.****...----------.....  @@@@&X>>>>",
">>>>o&&&&&===;;;;;;;;;;;;;;;;;:**&......-----.......  @@@@&X>>>>",
">>>>o&&&&&===;;;;;;;;;;;;;;;;::*&&& ................  @@@@&X>>>>",
">>>>o&&&&&o;;;;;;;;;;;;;;;;;;:*&@&& .................o@@@@&X>>>>",
">>>>o&&&&&o=;;;;;;;;;;;;;;;;;*&&@@& ................ o@@@@&X>>>>",
">>>>o&&&&&&o==;;;;$$$$$$$;;;;*&&@@&  .............  o@@@@@&X>>>>",
">>>>X*&&&&&&oo==###########=&&&&@@@@              oo@@@@@@&X>>>>",
">>>>X*&&&&&&&&:::::::::::***&&&&@@@@********&&&&&&@@@@@@@@&X>>>>",
">>>>X*&&&&&&&&&&:::::::***&&&&&&@@@@@@***&&&&&&&@@@@@@@@@@&X>>>>",
">>>>X+*&&&&&&&&&&&&&&&&&&&&&&&&&@@@@@@@@@@@@@@@@@@@@@@@@@&OX>>>>",
">>>>Xo*&&&&&&&&&&&&&&&&&&&&&&&&&@@@@@@@@@@@@@@@@@@@@@@@@@&oX>>>>",
">>>>>X*&&&&&&&&&&&&&&&&&&&&&&&&&@@@@@@@@@@@@@@@@@@@@@@@@@&X>>>>>",
">>>>>X+*&&&&&&&&&&&&&&&&&&&&&&&&@@@@@@@@@@@@@@@@@@@@@@@@&OX>>>>>",
">>>>>XO*&&&&&&&&&&&&&&&&&&&&&&&&@@@@@@@@@@@@@@@@@@@@@@@@&oX>>>>>",
">>>>>Xo+*&&&&&&&&&&&&&&&&&&&&&&&@@@@@@@@@@@@@@@@@@@@@@@&OoX>>>>>",
">>>>>>XO+*&&&&&&&&&&&&&&&&&&&&&&@@@@@@@@@@@@@@@@@@@@@@&OoX>>>>>>",
">>>>>>XOO+*&&&&&&&&&&&&&&&&&&&&&@@@@@@@@@@@@@@@@@@@@@&OooX>>>>>>",
">>>>>>XoOO+*&&&&&&&&&&&&&&&&&&&&@@@@@@@@@@@@@@@@@@@@&OoooX>>>>>>",
">>>>>>>XOOO+*&&&&&&&&&&&&&&&&&&&@@@@@@@@@@@@@@@@@@@&OoooX>>>>>>>",
">>>>>>>XoOOO+**&&&&&&&&&&&&&&&&&@@@@@@@@@@@@@@@@@&&OooooX>>>>>>>",
">>>>>>>>XOOOOO+**&&&&&&&&&&&&&&&@@@@@@@@@@@@@@@&&OoooooX>>>>>>>>",
">>>>>>>>XoOOOOOO+***&&&&&&&&&&&&@@@@@@@@@@@@&&&OoooooooX>>>>>>>>",
">>>>>>>>>XOOOOOOOOO+***&&&&&&&&&@@@@@@@@@&&&OoooooooooX>>>>>>>>>",
">>>>>>>>>XoOOOOOOOOOOO+****&&&&&@@@@@&&&&OooooooooooooX>>>>>>>>>",
">>>>>>>>>>XoOOOOOOOOOOOOOO+*******&&&OoooooooooooooooX>>>>>>>>>>",
">>>>>>>>>>>XoOOOOOOOOOOOOOOOOOOOooooooooooooooooooooX>>>>>>>>>>>",
">>>>>>>>>>>>XoOOOOOOOOOOOOOOOOOOoooooooooooooooooooX>>>>>>>>>>>>",
">>>>>>>>>>>>>XoOOOOOOOOOOOOOOOOOooooooooooooooooooX>>>>>>>>>>>>>",
">>>>>>>>>>>>>>XoOOOOOOOOOOOOOOOOoooooooooooooooooX>>>>>>>>>>>>>>",
">>>>>>>>>>>>>>>XXoOOOOOOOOOOOOOOoooooooooooooooXX>>>>>>>>>>>>>>>",
">>>>>>>>>>>>>>>>>XXoOOOOOOOOOOOOoooooooooooooXX>>>>>>>>>>>>>>>>>",
">>>>>>>>>>>>>>>>>>>XXoOOOOOOOOOOoooooooooooXX>>>>>>>>>>>>>>>>>>>",
">>>>>>>>>>>>>>>>>>>>>XXoOOOOOOOOoooooooooXX>>>>>>>>>>>>>>>>>>>>>",
">>>>>>>>>>>>>>>>>>>>>>>XXXXoOOOOoooooXXXX>>>>>>>>>>>>>>>>>>>>>>>",
">>>>>>>>>>>>>>>>>>>>>>>>>>>XXXXXXXXXX>>>>>>>>>>>>>>>>>>>>>>>>>>>"
};
