/* XPM */
static char *clock_42[] = {
/* columns rows colors chars-per-pixel */
"64 64 18 1 ",
"  c #181616",
". c #1E1C1C",
"X c #752802",
"o c #56566D",
"O c #B26411",
"+ c #DC9613",
"@ c #E6A01D",
"# c #E9B115",
"$ c #CCCC00",
"% c yellow",
"& c #F0CC40",
"* c #FAD64A",
"= c #FDF55F",
"- c #3A53AC",
"; c #6C6C89",
": c #4968D8",
"> c #FBF7B7",
", c None",
/* pixels */
",,,,,,,,,,,,,,,,,,,,,,,,,,,OOOOOOOOOO,,,,,,,,,,,,,,,,,,,,,,,,,,,",
",,,,,,,,,,,,,,,,,,,,,,,OOOO=====&&&&&OOOO,,,,,,,,,,,,,,,,,,,,,,,",
",,,,,,,,,,,,,,,,,,,,,OO====**********&&&&OO,,,,,,,,,,,,,,,,,,,,,",
",,,,,,,,,,,,,,,,,,,OO==******************&&OO,,,,,,,,,,,,,,,,,,,",
",,,,,,,,,,,,,,,,,OO==**********************&&OO,,,,,,,,,,,,,,,,,",
",,,,,,,,,,,,,,,OO==**************************&&OO,,,,,,,,,,,,,,,",
",,,,,,,,,,,,,,O#=********##          ##********&#O,,,,,,,,,,,,,,",
",,,,,,,,,,,,,O#=*******#                #*******&#O,,,,,,,,,,,,,",
",,,,,,,,,,,,O#=******#                    #******&#O,,,,,,,,,,,,",
",,,,,,,,,,,O#=*****#                        #*****&#O,,,,,,,,,,,",
",,,,,,,,,,O#=*****#                          #*****&#O,,,,,,,,,,",
",,,,,,,,,O#=*****                              *****&#O,,,,,,,,,",
",,,,,,,,,O=*****-                               *****&O,,,,,,,,,",
",,,,,,,,O=*****---                               *****&O,,,,,,,,",
",,,,,,,,O=****#----         .............        #****&O,,,,,,,,",
",,,,,,,O=****#------     ...................      #****&O,,,,,,,",
",,,,,,,O=****-------   ......................;o    ****&O,,,,,,,",
",,,,,,O=****#--------.........................;o   #****&X,,,,,,",
",,,,,,O=****--------:.........................;;    ****&X,,,,,,",
",,,,,,O=***#-------:::.........................;;   ****&X,,,,,,",
",,,,,O=****-------:::::........................;;.  #****&X,,,,,",
",,,,,O=***#------:::::::.......................;;;   #***&X,,,,,",
",,,,,O=***#-----:::::::::......................;;;.  ##**&X,,,,,",
",,,,,O=***-----::::::::::.....................;;;;;   ##*&X,,,,,",
",,,,O=****-----:::::::::::....................;;;;;.  ##**&X,,,,",
",,,,O=****----::::::::::::...................;;;;;;.  ###*&X,,,,",
",,,,O=****----:::::::::::::........;;;.....;;;;;;;;.  ###*&X,,,,",
",,,,O=****----::::::::::::::........;;;;;;;;;;;;;;;.  ###*&X,,,,",
",,,,O=****---::::::::::::::::..==...;;;;;;;;;;;;;;..  ####&X,,,,",
",,,,O=****---::::::::::::::::.====...;;;;;;;;;;;;;..  ####*X,,,,",
",,,,O*****---:::::::::::::::::>==*....;;;;;;;;;;;...  ####*X,,,,",
",,,,O*****---::::::::::::::::>>=*** ....;;;;;;;.....  ####*X,,,,",
",,,,O*****O::::::%%%%%%::::::>=*#** .................O####*X,,,,",
",,,,O*****O-:::%%%%%%%%%%::::=**##* ................ O####*X,,,,",
",,,,O******O--%%%%%%%%%%%%:::=**##*  .............  O#####*X,,,,",
",,,,X=******OO$$$$$$$$$$$$$-****####              OO######*X,,,,",
",,,,X=********>>>>>>>>>>>===****####========******########*X,,,,",
",,,,X=**********>>>>>>>===******######===*******##########*X,,,,",
",,,,X@=*************************#########################*+X,,,,",
",,,,XO=*************************#########################*OX,,,,",
",,,,,X=*************************#########################*X,,,,,",
",,,,,X@=************************########################*+X,,,,,",
",,,,,X+=************************########################*OX,,,,,",
",,,,,XO@=***********************#######################*+OX,,,,,",
",,,,,,X+@=**********************######################*+OX,,,,,,",
",,,,,,X++@=*********************#####################*+OOX,,,,,,",
",,,,,,XO++@=********************####################*+OOOX,,,,,,",
",,,,,,,X+++@=*******************###################*+OOOX,,,,,,,",
",,,,,,,XO+++@==*****************#################**+OOOOX,,,,,,,",
",,,,,,,,X+++++@==***************###############**+OOOOOX,,,,,,,,",
",,,,,,,,XO++++++@===************############***+OOOOOOOX,,,,,,,,",
",,,,,,,,,X+++++++++@===*********#########***+OOOOOOOOOX,,,,,,,,,",
",,,,,,,,,XO+++++++++++@====*****#####****+OOOOOOOOOOOOX,,,,,,,,,",
",,,,,,,,,,XO++++++++++++++@=======***+OOOOOOOOOOOOOOOX,,,,,,,,,,",
",,,,,,,,,,,XO+++++++++++++++++++OOOOOOOOOOOOOOOOOOOOX,,,,,,,,,,,",
",,,,,,,,,,,,XO++++++++++++++++++OOOOOOOOOOOOOOOOOOOX,,,,,,,,,,,,",
",,,,,,,,,,,,,XO+++++++++++++++++OOOOOOOOOOOOOOOOOOX,,,,,,,,,,,,,",
",,,,,,,,,,,,,,XO++++++++++++++++OOOOOOOOOOOOOOOOOX,,,,,,,,,,,,,,",
",,,,,,,,,,,,,,,XXO++++++++++++++OOOOOOOOOOOOOOOXX,,,,,,,,,,,,,,,",
",,,,,,,,,,,,,,,,,XXO++++++++++++OOOOOOOOOOOOOXX,,,,,,,,,,,,,,,,,",
",,,,,,,,,,,,,,,,,,,XXO++++++++++OOOOOOOOOOOXX,,,,,,,,,,,,,,,,,,,",
",,,,,,,,,,,,,,,,,,,,,XXO++++++++OOOOOOOOOXX,,,,,,,,,,,,,,,,,,,,,",
",,,,,,,,,,,,,,,,,,,,,,,XXXXO++++OOOOOXXXX,,,,,,,,,,,,,,,,,,,,,,,",
",,,,,,,,,,,,,,,,,,,,,,,,,,,XXXXXXXXXX,,,,,,,,,,,,,,,,,,,,,,,,,,,"
};
